<svg id="Capa_1" enable-background="new 0 0 512 512" height="512" viewBox="0 0 512 512" width="512" xmlns="http://www.w3.org/2000/svg"><g><g><path d="m339.731 396.036h-167.459s-54.099 34.296-54.099 108.464h120.351l17.476-13.629 17.477 13.629h120.352c0-74.168-54.098-108.464-54.098-108.464z" fill="#ff748f"/><path d="m194.272 396.036h-22s-54.099 34.295-54.099 108.463h22c0-74.167 54.099-108.463 54.099-108.463z" fill="#fd5f7e"/><path d="m238.524 396.036h34.953v108.464h-34.953z" fill="#e8e8e8"/><path d="m346.823 75.826c-5.067-2.917-11.401.592-11.709 6.431-.613 11.628-3.278 29.437-12.809 45.458 0 0-50.606-58.509-25.576-108.955 2.927-5.899-2.391-12.533-8.808-11.05-24.363 5.631-66.301 22.378-78.036 71.6 0 0-13.21-36.132-51.666-51.398-5.273-2.093-10.968 1.988-10.685 7.655.766 15.332-1.121 43.534-20.624 69.002-1.615 2.109-3.387 4.092-5.184 6.048-29.983 32.629-48.227 76.218-48.034 124.07.406 100.687 81.62 181.558 182.308 181.557 100.685-.001 182.307-81.623 182.307-182.308.001-67.617-36.809-126.635-91.484-158.11z" fill="#f9f097"/><path d="m401.958 284.79c0-80.136-98.2-102.098-136.202-157.634-4.672-6.827-14.841-6.827-19.512 0-38.002 55.535-136.202 77.498-136.202 157.634 0 72.6 65.348 131.453 145.959 131.453s145.959-58.853 145.959-131.453z" fill="#ffb78c"/><path d="m140.042 294.79c0-79.306 96.167-101.642 134.993-155.924-3.372-3.748-6.491-7.636-9.278-11.709-4.672-6.827-14.841-6.827-19.512 0-38.002 55.535-136.202 77.498-136.202 157.634 0 61.618 47.078 113.326 110.604 127.561-47.796-21.594-80.605-66.124-80.605-117.562z" fill="#ff995d"/><g><g><g><ellipse cx="256" cy="284.518" fill="#423e4f" rx="17.477" ry="19.557"/></g></g></g></g><g><path d="m120.856 123.073c2.629-3.201 2.166-7.927-1.035-10.556-3.201-2.63-7.927-2.166-10.555 1.035-72.926 88.78-51.119 223.551 49.386 283.557-29.051 25.198-47.979 63.344-47.979 107.392 0 4.142 3.358 7.5 7.5 7.5h275.651c4.142 0 7.5-3.358 7.5-7.5 0-43.944-18.928-82.3-48.177-107.565 90.954-54.417 118.732-170.802 66.373-259.416-16.688-28.244-40.534-51.821-68.96-68.185-9.889-5.692-22.336 1.078-22.94 12.536-.45 8.54-2.035 20.137-6.661 31.649-18.568-26.761-32.122-61.978-17.515-91.417 5.743-11.575-4.63-24.599-17.215-21.69-22.771 5.263-60.641 19.872-77.933 59.883-8.286-12.74-23.164-29.76-47.309-39.344-10.351-4.108-21.498 3.89-20.943 14.999.568 11.371-.37 33.649-13.028 55.084-2.106 3.566-.922 8.165 2.644 10.271 3.567 2.108 8.165.922 10.271-2.644 14.65-24.809 15.744-50.408 15.093-63.46-.012-.224.226-.388.427-.309 34.693 13.772 47.272 46.689 47.388 47.001 2.545 6.961 12.618 6.385 14.339-.836 10.821-45.387 50.023-60.852 72.428-66.031.158-.037.195-.015.263.036.122.092.178.223.18.257-.612 3.036-18.973 31.097 3.25 79.947 9.857 21.667 22.783 36.73 23.328 37.36 3.343 3.866 9.502 3.325 12.118-1.072 10.226-17.19 13.177-36.078 13.853-48.897.004-.088.012-.223.201-.326.142-.077.195-.047.276 0 88.575 50.99 114.718 166.568 57.027 250.431 6.139-15.155 9.349-31.334 9.348-47.97 0-40.802-23.682-66.286-44.314-83.93-3.148-2.691-7.882-2.322-10.575.826-2.692 3.148-2.322 7.882.826 10.575 27.015 23.102 39.063 45.471 39.064 72.53 0 72.117-70.176 132.005-154.801 123.083-68.67-7.263-122.112-59.687-122.112-123.083 0-75.414 95.776-96.235 134.889-153.396 1.694-2.475 5.441-2.473 7.133 0 17.401 25.43 46.524 43.997 72.688 62.93 3.356 2.428 8.045 1.676 10.472-1.679 2.429-3.355 1.677-8.044-1.679-10.472-26.024-18.836-53.317-36.18-69.103-59.249-7.633-11.155-24.235-11.189-31.891 0-37.013 54.089-137.51 76.853-137.51 161.866 0 17.376 3.551 34.012 10.013 49.358-20.236-28.912-31.215-63.321-31.361-99.491-.16-40.621 13.926-80.251 39.667-111.588zm29.97 304.409c8.682-11.573 17.468-19.105 22.106-22.68 18.187 8.824 37.751 14.684 58.089 17.324v74.874h-53.43v-31.733c0-4.142-3.358-7.5-7.5-7.5s-7.5 3.358-7.5 7.5v31.733h-36.725c1.349-25.862 9.728-49.216 24.96-69.518zm95.194 69.518v-73.515c6.615.338 13.232.347 19.953.021v73.494zm92.903-92.307c4.607 3.536 13.481 11.104 22.247 22.788 15.232 20.302 23.611 43.657 24.96 69.519h-36.726v-31.733c0-4.142-3.358-7.5-7.5-7.5s-7.5 3.358-7.5 7.5v31.733h-53.431v-74.868c15.633-2.092 31.063-6.154 45.709-12.048 4.148-1.66 8.239-3.448 12.241-5.391z"/><path d="m164.77 258.25v14.779c0 4.142 3.358 7.5 7.5 7.5s7.5-3.358 7.5-7.5v-14.779c0-4.142-3.358-7.5-7.5-7.5s-7.5 3.358-7.5 7.5z"/><path d="m255.996 257.466c-13.772 0-24.977 12.137-24.977 27.057s11.204 27.057 24.977 27.057c13.772 0 24.977-12.137 24.977-27.057s-11.205-27.057-24.977-27.057zm0 39.113c-5.501 0-9.977-5.409-9.977-12.057s4.475-12.057 9.977-12.057c5.501 0 9.977 5.409 9.977 12.057s-4.476 12.057-9.977 12.057z"/><path d="m332.223 258.25v14.779c0 4.142 3.358 7.5 7.5 7.5s7.5-3.358 7.5-7.5v-14.779c0-4.142-3.358-7.5-7.5-7.5-4.143 0-7.5 3.358-7.5 7.5z"/></g></g></svg>