<svg id="Capa_1" enable-background="new 0 0 512 512" height="512" viewBox="0 0 512 512" width="512" xmlns="http://www.w3.org/2000/svg"><g><g><path d="m185.529 471.539 18.376 16.867-18.376 16.094h-70.45c0-12.112 1.433-23.072 3.897-32.961l33.276-17.542z" fill="#c7c5cb"/><path d="m118.976 471.539c-2.465 9.888-3.897 20.848-3.897 32.961h20c0-12.112 1.433-23.073 3.897-32.961z" fill="#b2b0bc"/><path d="m185.529 391.472 18.376 23.168-18.376 21.815-33.276 17.542-18.259-17.542c20.868-32.721 51.535-44.983 51.535-44.983z" fill="#c7c5cb"/><path d="m153.994 436.455c11.825-18.542 26.792-30.508 37.547-37.403l-6.012-7.58s-30.667 12.263-51.535 44.983z" fill="#b2b0bc"/><path d="m349.791 471.539-18.376 16.867 18.376 16.094h70.45c0-12.112-1.433-23.072-3.897-32.961l-33.276-17.542z" fill="#c7c5cb"/><path d="m349.791 391.472-18.376 23.168 18.376 21.815 33.276 17.542 18.259-17.542c-20.868-32.721-51.535-44.983-51.535-44.983z" fill="#c7c5cb"/><path d="m185.529 436.455 18.376 17.542-18.376 17.542h-66.553c3.406-13.675 8.766-25.297 15.018-35.085h51.535z" fill="#b2b0bc"/><path d="m133.994 436.455c-6.251 9.788-11.611 21.409-15.018 35.085h20c3.406-13.675 8.766-25.297 15.018-35.085z" fill="#a19dae"/><path d="m349.791 436.455-18.376 17.542 18.376 17.542h66.553c-3.406-13.675-8.766-25.297-15.018-35.085h-51.535z" fill="#b2b0bc"/><path d="m185.529 391.472v113.028h33.368l48.763-18.882 48.762 18.882h33.369v-113.028z" fill="#77718c"/><path d="m290.6 435.198h-45.88c-14.261 0-25.822 11.561-25.822 25.822v43.48h97.525v-43.48c-.001-14.261-11.562-25.822-25.823-25.822z" fill="#5c586f"/><circle cx="267.66" cy="471.539" fill="#ff748f" r="14.078"/><circle cx="267.66" cy="231.438" fill="#da9d81" r="179.839"/><path d="m117.821 231.438c0-94.27 72.536-171.588 164.839-179.211-4.947-.408-9.948-.627-15-.627-91.432 0-166.924 68.234-178.341 156.557-.495-.018-.987-.039-1.498-.039-23.945 0-43.357 19.412-43.357 43.357s19.412 43.357 43.357 43.357c4.131 0 7.729-.59 10.874-1.669 25.183 68.918 91.328 118.114 168.965 118.114 5.052 0 10.053-.219 15-.627-92.302-7.624-164.839-84.942-164.839-179.212z" fill="#c7856a"/><path d="m466.264 188.831c-1.873-16.533-16.052-28.924-32.69-28.924h-54.218v102.989h54.212c16.874 0 30.917-12.762 32.764-29.534.795-7.212 1.203-14.539 1.203-21.96.001-7.631-.431-15.162-1.271-22.571z" fill="#e8e8e8"/><path d="m383.001 146.92h-91.356c-14.68 0-26.581 11.901-26.581 26.581v75.801c0 14.68 11.901 26.581 26.581 26.581h91.356c14.68 0 26.581-11.901 26.581-26.581v-75.801c0-14.68-11.9-26.581-26.581-26.581z" fill="#5bd6fd"/><path d="m273.035 10.58c-2.414-4.107-8.335-4.107-10.75 0-7.777 13.231-23.319 36.431-42.147 47.374 0 0 20.288 9.831 35.9 29.481 5.97 7.514 17.273 7.514 23.244 0 15.612-19.649 35.9-29.481 35.9-29.481-18.828-10.943-34.37-34.143-42.147-47.374z" fill="#e8e8e8"/></g><g><path d="m174.89 239.091c0 4.142 3.358 7.5 7.5 7.5s7.5-3.358 7.5-7.5v-15.642l6.702 1.796c3.999 1.073 8.113-1.303 9.186-5.304 1.072-4.001-1.302-8.113-5.304-9.186l-32.859-8.805c-3.995-1.071-8.113 1.302-9.186 5.304-1.072 4.001 1.302 8.113 5.304 9.186l11.555 3.096c-.701 2.077-.265 2.074-.398 19.555z"/><path d="m367.706 201.951-32.859 8.805c-4.001 1.072-6.375 5.185-5.304 9.186 1.073 4.003 5.184 6.374 9.186 5.304l6.702-1.796v15.642c0 4.142 3.358 7.5 7.5 7.5s7.5-3.358 7.5-7.5c-.134-17.498.305-17.471-.397-19.555l11.555-3.096c4.001-1.072 6.375-5.185 5.304-9.186-1.073-4.002-5.188-6.373-9.187-5.304z"/><path d="m282.943 293.833c-8.077 9.27-22.465 9.296-30.566 0-2.721-3.124-7.459-3.448-10.582-.727s-3.448 7.459-.727 10.582c14.07 16.146 39.126 16.133 53.183 0 2.721-3.123 2.396-7.86-.727-10.582s-7.86-2.397-10.581.727z"/><path d="m267.66 449.961c-11.898 0-21.579 9.68-21.579 21.579 0 11.898 9.68 21.578 21.579 21.578 11.898 0 21.578-9.68 21.578-21.578 0-11.899-9.679-21.579-21.578-21.579zm0 28.157c-3.627 0-6.579-2.951-6.579-6.578s2.951-6.579 6.579-6.579c3.627 0 6.578 2.951 6.578 6.579 0 3.627-2.951 6.578-6.578 6.578z"/><path d="m437.633 152.612c-23.083-49.631-66.842-86.877-119.426-101.592-17.095-10.316-31.554-32.071-38.706-44.24-5.311-9.033-18.362-9.048-23.681 0-7.155 12.173-21.622 33.941-38.727 44.252-26.176 7.327-50.922 20.587-71.622 38.413-3.139 2.703-3.492 7.438-.789 10.577s7.438 3.493 10.577.789c18.554-15.978 40.631-27.976 64.014-34.814 10.965 6.192 22.444 15.495 30.894 26.103 9.02 11.352 26.066 11.23 34.988 0 8.183-10.299 19.588-19.712 30.902-26.107 43.872 12.833 82.446 43.327 104.774 86.413h-11.09c-6.247-7.902-15.907-12.987-26.739-12.987h-91.355c-18.792 0-34.081 15.289-34.081 34.081v75.801c0 18.792 15.289 34.081 34.081 34.081h91.355c10.832 0 20.492-5.085 26.739-12.987 11.77-.022 23.331.059 25.84-.05-4.492 19.523-12.327 37.954-23.362 54.923-3.27 5.028.415 11.59 6.281 11.59 2.453 0 4.857-1.202 6.294-3.412 13.433-20.655 22.498-43.311 26.991-67.393 11.871-6.015 20.449-17.754 22.004-31.87 1.685-15.3 1.665-30.876-.071-46.197-2.146-18.934-17.328-33.517-36.085-35.374zm-169.973-136.395c6.864 11.421 18.841 29.002 33.718 41.189-3.33 2.22-6.522 4.547-9.833 7.217-17.116 13.84-16.954 19.597-22.324 20.775-5.702 1.247-7.297-3.133-13.116-9.338-6.707-7.159-14.364-13.482-22.163-18.654 14.878-12.188 26.854-29.768 33.718-41.189zm115.341 252.166h-91.355c-10.521 0-19.081-8.56-19.081-19.081v-75.801c0-10.521 8.56-19.081 19.081-19.081h91.355c10.579 0 19.081 8.637 19.081 19.081-.15 79.989.467 77.008-.804 81.254-2.346 7.872-9.658 13.628-18.277 13.628zm75.877-35.842c-1.091 9.909-7.648 17.959-16.439 21.25-5.778 2.162-9.113 1.574-25.905 1.605.325-1.791.549-4.018.549-6.094-.219-77.422.474-76.262-.549-81.895h17.04c12.95 0 23.8 9.573 25.238 22.268 1.546 13.645 1.691 28.114.066 42.866z"/><path d="m96.416 212.139c3.761-33.256 17.165-64.946 38.685-90.816 2.649-3.185 2.214-7.914-.97-10.562s-7.913-2.215-10.562.97c-21.316 25.626-35.302 56.505-40.715 89.135-25.719 2.505-45.889 24.244-45.889 50.611 0 30.401 26.674 54.235 57.14 50.464 15.165 37.196 41.945 68.462 75.821 89.262-38.02 23.154-62.346 62.84-62.346 113.299 0 4.142 3.358 7.5 7.5 7.5h305.162c4.142 0 7.5-3.358 7.5-7.5 0-50.648-24.528-90.274-62.358-113.306 14.695-8.977 28.217-19.993 40.067-32.858 2.807-3.046 2.612-7.791-.435-10.598-3.046-2.807-7.791-2.612-10.598.435-35.136 38.141-86.535 59.219-140.429 55.063-94.809-7.478-168.59-92.271-157.573-191.099zm41.778 231.816h39.835v20.084h-49.031c2.404-7.033 5.48-13.753 9.196-20.084zm39.835-40.081v25.081h-29.25c10.218-12.199 21.393-20.307 29.25-25.081zm-53.042 75.166h53.042v17.96h-55.251c.33-6.163 1.068-12.168 2.209-17.96zm68.042-75.714c46.249 20.175 100.957 21.07 149.262-.006v93.681h-18.369v-35.98c0-18.374-14.949-33.322-33.323-33.322h-45.88c-18.374 0-33.322 14.948-33.322 33.322v35.979h-18.369c.001-11.18.001-83.496.001-93.674zm213.293 60.714h-49.031v-20.084h39.835c3.716 6.33 6.792 13.05 9.196 20.084zm-179.924 32.96v-35.979c0-10.103 8.219-18.322 18.322-18.322h45.88c10.103 0 18.323 8.219 18.323 18.322v35.979zm130.893 0v-17.96h53.041c1.141 5.792 1.88 11.798 2.209 17.96zm29.25-68.045h-29.25v-25.081c7.857 4.774 19.032 12.882 29.25 25.081zm-297.74-141.635c-20.144.543-36.836-15.679-36.836-35.844 0-17.415 12.479-31.969 28.965-35.192-1.868 23.295.532 47.539 7.871 71.036z"/></g></g></svg>