<svg id="Capa_1" enable-background="new 0 0 512 512" height="512" viewBox="0 0 512 512" width="512" xmlns="http://www.w3.org/2000/svg"><g><g><path d="m341.617 374.95h-171.234s-71.666 39.968-71.666 129.55h90.097l67.186-17.961 67.187 17.961h90.097c-.001-89.583-71.667-129.55-71.667-129.55z" fill="#77718c"/><path d="m194.383 374.95h-24s-71.666 39.968-71.666 129.55h24c0-89.583 71.666-129.55 71.666-129.55z" fill="#5c586f"/><path d="m256 437.313c-37.106 0-67.187 30.08-67.187 67.187h134.373c.001-37.106-30.08-67.187-67.186-67.187z" fill="#c7c5cb"/><path d="m256 468.577c-19.84 0-35.923 16.083-35.923 35.923h71.846c0-19.84-16.083-35.923-35.923-35.923z" fill="#b2b0bc"/><circle cx="256" cy="230.782" fill="#ffdcce" r="162.156"/><path d="m381.048 59.294c-32.009-31.999-76.212-51.794-125.048-51.794-97.663 0-176.841 79.169-176.841 176.841v126.733c0 27.529 16.119 52.508 41.202 63.85l57.994 26.224c9.512 4.301 20.292-2.655 20.292-13.094v-66.977c0-19.916-10.622-38.32-27.866-48.284l-29.359-16.963v-118.915l114.578 68.056 114.579-68.056v118.916l-29.359 16.963c-17.245 9.964-27.866 28.368-27.866 48.284v66.977c0 10.44 10.78 17.396 20.292 13.094l57.994-26.224c25.084-11.343 41.202-36.321 41.202-63.85v-126.734c-.001-48.836-19.795-93.049-51.794-125.047z" fill="#b2b0bc"/><path d="m109.159 341.074v-156.733c0-92.619 71.2-168.587 161.842-176.202-4.946-.416-9.947-.639-15-.639-97.663 0-176.841 79.169-176.841 176.841v126.733c0 26.281 14.697 50.228 37.854 62.215-5.061-9.767-7.855-20.768-7.855-32.215z" fill="#a19dae"/><g><path d="m256 225.574c-4.804 0-9.609-1.276-13.886-3.827l-151.893-90.592c-20.122-12.002-26.705-38.043-14.704-58.165 3.337-5.595 10.578-7.426 16.173-4.089l164.31 97.999 164.31-97.999c5.595-3.337 12.836-1.507 16.173 4.088 12.002 20.122 5.419 46.164-14.704 58.165l-151.892 90.592c-4.277 2.552-9.082 3.828-13.887 3.828z" fill="#77718c"/></g></g><g><path d="m179.357 218.483c-4.142 0-7.5 3.358-7.5 7.5v16.699c0 4.142 3.358 7.5 7.5 7.5s7.5-3.358 7.5-7.5v-16.699c0-4.142-3.358-7.5-7.5-7.5z"/><path d="m332.643 250.182c4.142 0 7.5-3.358 7.5-7.5v-16.699c0-4.142-3.358-7.5-7.5-7.5s-7.5 3.358-7.5 7.5v16.699c-.001 4.142 3.357 7.5 7.5 7.5z"/><path d="m241.447 259.99c-2.722-3.123-7.46-3.448-10.582-.726-3.123 2.721-3.448 7.459-.726 10.582 13.687 15.704 38.049 15.687 51.721 0 2.722-3.123 2.397-7.861-.726-10.582-3.123-2.722-7.861-2.397-10.582.726-7.708 8.844-21.404 8.835-29.105 0z"/><path d="m416.477 62.433-14.847 8.855c-74.038-95.283-217.47-94.821-291.248.008l-14.86-8.863c-9.159-5.463-20.994-2.473-26.458 6.688-12.694 21.284-7.649 47.804 10.047 63.186-4.95 16.85-7.464 34.32-7.464 52.014v126.741c0 30.411 17.905 58.158 45.615 70.688l20.85 9.428c-20.447 20.602-46.905 57.965-46.905 113.322 0 4.142 3.358 7.5 7.5 7.5h314.586c4.142 0 7.5-3.358 7.5-7.5 0-15.544-2.111-30.722-6.274-45.111-1.151-3.979-5.311-6.27-9.29-5.12-3.979 1.151-6.272 5.31-5.12 9.29 3.101 10.717 4.945 21.935 5.502 33.441h-42.304v-39.361c0-4.142-3.358-7.5-7.5-7.5s-7.5 3.358-7.5 7.5v39.361h-17.993c-3.774-37.676-35.661-67.191-74.314-67.191s-70.54 29.515-74.314 67.191h-17.993v-39.361c0-4.142-3.358-7.5-7.5-7.5s-7.5 3.358-7.5 7.5v39.361h-42.303c2.411-49.684 28.416-82.35 46.411-99.178l22.459 10.156c12.638 5.713 27.395-1.664 30.364-15.162 32.582 10.123 67.977 10.183 100.753 0 2.955 13.434 17.682 20.897 30.364 15.162l22.46-10.156c9.286 8.678 21.077 21.891 30.375 39.576 1.928 3.667 6.462 5.077 10.13 3.149 3.666-1.928 5.076-6.463 3.149-10.129-8.805-16.749-19.619-29.832-28.965-39.237l20.849-9.428c27.71-12.53 45.615-40.276 45.615-70.688v-126.743c0-17.694-2.515-35.164-7.464-52.014 17.69-15.377 22.746-41.894 10.047-63.186-5.453-9.139-17.321-12.139-26.46-6.689zm-187.898 434.566c3.299-12.046 14.343-20.924 27.421-20.924s24.122 8.878 27.421 20.924zm27.421-52.189c30.374 0 55.522 22.803 59.221 52.19h-16.458c-3.565-20.381-21.378-35.925-42.764-35.925s-39.198 15.544-42.764 35.925h-16.458c3.701-29.388 28.849-52.19 59.223-52.19zm-169.352-133.747v-126.741c0-14.676 1.876-29.184 5.584-43.251l41.682 24.86v89.885c0 2.679 1.429 5.154 3.748 6.495l29.361 16.964c14.877 8.596 24.12 24.61 24.12 41.793v66.98c0 4.992-5.156 8.318-9.702 6.261l-57.997-26.226c-22.353-10.108-36.796-32.489-36.796-57.02zm187.082-82.891 89.355-53.294v76.609l-25.612 14.798c-19.502 11.267-31.617 32.258-31.617 54.782v56.132c-31.345 10.673-66.58 11.282-99.713 0v-56.132c0-22.523-12.114-43.514-31.616-54.782l-25.612-14.798v-76.609l89.356 53.294c10.957 6.535 24.577 6.49 35.459 0zm151.621 82.891c0 24.531-14.443 46.912-36.795 57.019l-57.997 26.226c-4.548 2.058-9.702-1.271-9.702-6.261 0-22.44 0-44.759 0-66.98 0-17.183 9.242-33.197 24.12-41.793l29.36-16.964c2.319-1.34 3.748-3.816 3.748-6.495v-89.884c14.948-8.915 26.404-15.748 41.682-24.86 3.708 14.067 5.583 28.575 5.583 43.251v126.741zm-7.404-186.373c-17.925 10.691-139.446 83.17-151.901 90.598-6.183 3.687-13.901 3.692-20.092 0-1.854-1.105-152.199-90.722-153.889-91.889-15.791-11.126-19.158-31.437-10.118-46.594 1.215-2.037 3.849-2.706 5.89-1.489l48.7 29.046c3.828 2.282 8.773.74 10.643-3.278 1.607-3.444.377-7.616-2.959-9.605l-20.864-12.444c67.157-84.423 196.679-86.353 265.286-.002l-132.643 79.113-86.15-51.381c-3.587-2.139-8.195-.902-10.284 2.6-2.122 3.558-.958 8.162 2.6 10.284 93.852 55.529 89.912 54.732 93.834 54.732 1.329 0 2.658-.353 3.842-1.059 6.215-3.707 149.345-89.074 164.319-98.005 2.034-1.213 4.677-.545 5.891 1.489 9.976 16.725 4.307 38.096-12.105 47.884z"/></g></g></svg>