<svg id="Capa_1" enable-background="new 0 0 512 512" height="512" viewBox="0 0 512 512" width="512" xmlns="http://www.w3.org/2000/svg"><g><g><g fill="#e8e8e8"><path d="m495.16 304.344-9.459-24.992c-2.241-5.922-8.566-9.222-14.705-7.672l-23.332 5.889-13.754 51.036 42.193 24.12 7.435-5.944c12.669-10.127 17.363-27.268 11.622-42.437z"/><path d="m421.337 396.489-47.758 38.169-45.256-24.505v-77.308l32.863-33.464 21.362-5.385 51.362 34.61z"/><path d="m16.84 304.344 9.459-24.992c2.241-5.922 8.566-9.222 14.705-7.672l23.332 5.889 13.754 51.036-42.193 24.12-7.435-5.944c-12.669-10.127-17.363-27.268-11.622-42.437z"/><path d="m90.663 396.489 47.758 38.169 45.256-24.505v-77.308l-32.863-33.464-21.362-5.385-51.362 34.61z"/></g><path d="m476.103 352.725-54.766 43.764-38.789-102.493 65.116-16.427z" fill="#ffb78c"/><path d="m35.897 352.725 54.766 43.764 38.789-102.493-65.116-16.427z" fill="#ffb78c"/><path d="m109.144 504.5c0-98.024 59.916-148.359 59.916-148.359h173.88s59.916 50.336 59.916 148.359z" fill="#ffb78c"/><path d="m199.06 356.141h-30s-59.916 50.335-59.916 148.359h30c0-98.024 59.916-148.359 59.916-148.359z" fill="#ff995d"/><circle cx="256" cy="192.647" fill="#76e6d5" r="185.147"/><path d="m110.853 192.647c0-95.496 72.301-174.095 165.147-184.069-6.571-.706-13.242-1.078-20-1.078-102.254 0-185.147 82.893-185.147 185.147s82.893 185.147 185.147 185.147c6.758 0 13.429-.372 20-1.078-92.846-9.974-165.147-88.573-165.147-184.069z" fill="#00d6bc"/><path d="m93.355 41.886.475 47.664-48.497 4.587-26.67-26.497c-7.391-7.337-7.66-19.215-.615-26.886l16.766-18.244c6.473-7.034 17.111-8.318 25.063-2.999z" fill="#ffb78c"/><path d="m418.17 142.322-120.039 119.272c-23.315 23.164-60.947 23.164-84.262 0l-120.039-119.272v-52.771l56.988-9.245 105.182 70.312 105.182-70.312 56.988 9.256z" fill="#ffb78c"/><path d="m493.337 67.64-26.67 26.498-52.742-2.034 4.72-50.218 33.478-22.376c7.952-5.319 18.589-4.035 25.063 2.999l16.766 18.244c7.046 7.671 6.776 19.55-.615 26.887z" fill="#ffb78c"/><path d="m311.478 409.235c-2.273-3.73-6.859-5.341-10.965-3.853l-41.385 15.001c-2.021.732-4.235.732-6.255 0l-41.385-15.001c-4.106-1.488-8.692.123-10.965 3.853s-1.602 8.544 1.603 11.511l43.131 39.927c6.005 5.529 15.394 5.641 21.488 0l43.131-39.927c3.204-2.967 3.875-7.781 1.602-11.511z" fill="#e8e8e8"/><path d="m150.818 80.306-56.988 62.016-48.497-48.184 48.022-52.252z" fill="#e8e8e8"/><path d="m466.667 94.138-48.497 48.184-56.988-62.016 57.463-38.42z" fill="#e8e8e8"/></g><g><path d="m174.559 150.406c-4.142 0-7.5 3.358-7.5 7.5v17.723c0 4.142 3.358 7.5 7.5 7.5s7.5-3.358 7.5-7.5v-17.723c0-4.142-3.358-7.5-7.5-7.5z"/><path d="m344.941 175.628v-17.723c0-4.141-3.358-7.5-7.5-7.5s-7.5 3.358-7.5 7.5v17.723c0 4.142 3.358 7.5 7.5 7.5s7.5-3.358 7.5-7.5z"/><path d="m281.406 185.425c-3.122-2.722-7.86-2.396-10.581.727-7.836 8.993-21.791 9.018-29.651 0-2.723-3.123-7.46-3.448-10.582-.727-3.122 2.722-3.448 7.459-.727 10.582 13.833 15.87 38.452 15.852 52.267 0 2.722-3.124 2.397-7.862-.726-10.582z"/><path d="m317.879 405.336c-4.114-6.75-12.493-9.694-19.924-7-43.499 15.615-41.438 15.393-42.528 15.001l-41.384-15.001c-7.432-2.695-15.81.25-19.924 7s-2.889 15.547 2.912 20.917l43.144 39.939c8.901 8.195 22.809 8.182 31.661-.014l43.13-39.925c5.803-5.369 7.027-14.166 2.913-20.917zm-13.101 9.91-43.13 39.926c-3.159 2.925-8.127 2.918-11.297 0l-43.129-39.925c-1.338-1.238 0-3.429 1.711-2.809l41.384 15.001c3.664 1.328 7.701 1.329 11.366 0l41.384-15c1.709-.622 3.049 1.569 1.711 2.807z"/><path d="m502.165 301.698-9.459-24.991c-3.592-9.489-13.719-14.773-23.555-12.289l-23.331 5.889-15.301 3.86c11.614-24.768 18.12-52.39 18.12-81.506 0-20.662-3.259-40.959-9.682-60.411 22.342-22.198 52.519-52.179 59.655-59.269 10.294-10.219 10.669-26.595.855-37.281 0 0-.001-.001-.001-.002l-16.769-18.247c-9.044-9.827-23.659-11.574-34.748-4.156-.105.07-59.227 39.592-59.335 39.664-53.507-50.875-127.531-64.198-191.288-43.824-3.946 1.261-6.122 5.481-4.861 9.426 1.261 3.946 5.483 6.123 9.426 4.861 57.961-18.521 124.91-6.8 173.923 38.094-15.108 10.1-105.17 70.306-119.815 80.096l-119.81-80.093c11.219-10.256 23.685-19.022 37.162-26.122 3.665-1.931 5.07-6.467 3.14-10.131-1.931-3.664-6.465-5.07-10.131-3.14-15.698 8.271-30.125 18.631-42.974 30.833-.113-.076-59.022-39.455-59.333-39.663-11.092-7.419-25.705-5.67-34.751 4.159l-16.768 18.246c-9.815 10.686-9.44 27.062.853 37.279 33.303 33.088 2.45 2.433 59.656 59.271-15.147 45.874-12.681 96.879 8.438 141.917l-15.301-3.86-23.331-5.889c-9.835-2.483-19.964 2.799-23.555 12.289l-9.459 24.991c-6.916 18.274-1.309 38.748 13.953 50.948.113.09 88.267 70.54 91.603 73.206-7.794 21.206-13.741 47.569-13.741 78.648 0 4.142 3.358 7.5 7.5 7.5h293.7c4.142 0 7.5-3.358 7.5-7.5 0-31.079-5.947-57.442-13.741-78.648 4.495-3.593 95.621-76.418 91.603-73.206 15.261-12.2 20.868-32.675 13.953-50.949zm-83.756-170.177-45.787-49.827 44.842-29.982c4.447 4.839 34.276 37.295 38.791 42.207-4.861 4.83-32.021 31.814-37.846 37.602zm37.876-105.756c4.906-3.281 11.37-2.506 15.37 1.841l16.764 18.241c4.342 4.727 4.178 11.971-.377 16.491l-21.138 21.001-36.82-40.062zm-432.705 20.084 16.762-18.24c2.343-2.546 5.53-3.867 8.754-3.867 3.734 0 5.988 1.729 6.622 2.025l26.198 17.511-36.82 40.062-21.14-21.003c-4.552-4.52-4.716-11.763-.376-16.488zm70.956 5.864 44.842 29.982-45.787 49.827c-6.183-6.143-33.138-32.924-37.846-37.601 4.486-4.883 34.353-37.38 38.791-42.208zm-9.474 92.478c.128.128 124.573 124.031 128.61 127.301 26.31 21.305 65.232 19.789 89.745-4.566 0 0 33.651-33.437 33.672-33.458 6.951-6.907-3.764-17.402-10.572-10.64l-33.672 33.458c-20.315 20.183-53.371 20.184-73.687 0l-114.919-114.185 47.757-51.971 99.836 66.738c2.522 1.686 5.813 1.686 8.336 0l99.835-66.738 47.758 51.97s-60.38 59.995-60.484 60.098c-6.803 6.76 3.679 17.5 10.572 10.64l69.09-68.649c4.45 15.708 6.701 31.963 6.701 48.471 0 76.198-48.229 141.337-115.761 166.514-116.115 43.073-239.518-43.157-239.518-166.513 0-16.509 2.25-32.761 6.701-48.47zm-40.209 206.09 24.14-63.795 21.954 5.539c6.003 9.948 12.916 19.367 20.613 28.084l-24.257 64.094zm-20.989-43.273 9.459-24.991c.889-2.349 3.398-3.675 5.855-3.055 23.44 5.916 11.787 2.975 15.176 3.83-4.28 11.311-14.566 38.495-21.81 57.637-9.699-8.174-13.191-21.501-8.68-33.421zm99.206 25.065c10.246 9.779 21.493 18.368 33.604 25.666-8.719 9.226-23.36 27.112-35.386 53.625l-21.671-17.32c6.746-17.828 16.56-43.759 23.453-61.971zm225.875 164.928v-43.679c0-4.141-3.358-7.5-7.5-7.5s-7.5 3.358-7.5 7.5v43.679h-155.89v-43.679c0-4.141-3.358-7.5-7.5-7.5s-7.5 3.358-7.5 7.5v43.679h-46.281c1.819-54.826 24.293-102.541 53.569-131.763 53.695 26.67 117.401 26.775 171.32-.002 29.166 29.045 51.743 76.882 53.563 131.765zm41.763-85.634c-8.641-19.006-20.827-38.191-35.393-53.622 12.115-7.299 23.366-15.891 33.615-25.672l23.453 61.971zm33.99-27.163-24.257-64.094c7.696-8.717 14.61-18.137 20.613-28.085l21.954-5.539c2.876 7.601 19.8 52.326 24.14 63.795zm54.759-43.775c-8.059-21.298-17.302-45.724-21.81-57.637l15.176-3.83c2.446-.618 4.962.696 5.855 3.055l9.459 24.991c4.511 11.92 1.019 25.246-8.68 33.421z"/></g></g></svg>